<?xml version="1.0" encoding="UTF-8" standalone="no"?>
<svg
   xmlns:dc="http://purl.org/dc/elements/1.1/"
   xmlns:cc="http://creativecommons.org/ns#"
   xmlns:rdf="http://www.w3.org/1999/02/22-rdf-syntax-ns#"
   xmlns:svg="http://www.w3.org/2000/svg"
   xmlns="http://www.w3.org/2000/svg"
   xmlns:sodipodi="http://sodipodi.sourceforge.net/DTD/sodipodi-0.dtd"
   xmlns:inkscape="http://www.inkscape.org/namespaces/inkscape"
   viewbox="0 0 500 50"
   id="svg3539"
   version="1.1"
   inkscape:version="0.91 r13725"
   sodipodi:docname="_24hour.svg">
  <metadata
     id="metadata3570">
    <rdf:RDF>
      <cc:Work
         rdf:about="">
        <dc:format>image/svg+xml</dc:format>
        <dc:type
           rdf:resource="http://purl.org/dc/dcmitype/StillImage" />
        <dc:title></dc:title>
      </cc:Work>
    </rdf:RDF>
  </metadata>
  <defs
     id="defs3568" />
  <sodipodi:namedview
     pagecolor="#ffffff"
     bordercolor="#666666"
     borderopacity="1"
     objecttolerance="10"
     gridtolerance="10"
     guidetolerance="10"
     inkscape:pageopacity="0"
     inkscape:pageshadow="2"
     inkscape:window-width="1366"
     inkscape:window-height="741"
     id="namedview3566"
     showgrid="true"
     inkscape:zoom="2.9102813"
     inkscape:cx="240.72921"
     inkscape:cy="47.511249"
     inkscape:window-x="0"
     inkscape:window-y="0"
     inkscape:window-maximized="1"
     inkscape:current-layer="g3703">
    <inkscape:grid
       type="xygrid"
       id="grid3737" />
  </sodipodi:namedview>
  <!-- Created with Method Draw - http://github.com/duopixel/Method-Draw/ -->
  <g
     id="g3541">
    <title
       id="title3543">background</title>
    <rect
       fill="none"
       stroke="none"
       id="canvas_background"
       height="52"
       width="292"
       y="-1"
       x="-1" />
  </g>
  <g
     id="g3546">
    <title
       id="title3548">Layer 1</title>
    <g
       id="g3703"
       style="image-rendering:auto">
      <g
         id="g3852">
        <g
           transform="translate(12,0)"
           style="font-size:24px;font-family:'Courier New', Courier, monospace;text-anchor:start;fill:#f2f2f2;fill-opacity:0;stroke:#000000"
           id="svg_11">
          <path
             inkscape:connector-curvature="0"
             d="m 37.6875,30 0,-1.371094 q 0.515625,-1.136719 1.359375,-2.097656 0.84375,-0.960938 1.792969,-1.804688 0.960937,-0.855468 1.921875,-1.628906 0.972656,-0.773437 1.746093,-1.523437 0.785157,-0.761719 1.277344,-1.535157 0.492188,-0.785156 0.492188,-1.652343 0,-0.703125 -0.234375,-1.207032 -0.222657,-0.515625 -0.644532,-0.84375 -0.410156,-0.339843 -0.984375,-0.492187 -0.5625,-0.164062 -1.253906,-0.164062 -0.632812,0 -1.183594,0.175781 -0.539062,0.175781 -0.949218,0.527343 -0.410157,0.351563 -0.667969,0.878907 -0.257813,0.515625 -0.339844,1.207031 l -2.15625,-0.199219 q 0.105469,-0.890625 0.480469,-1.675781 0.375,-0.785156 1.019531,-1.371094 0.65625,-0.597656 1.605469,-0.9375 0.949219,-0.339843 2.191406,-0.339843 1.230469,0 2.203125,0.28125 0.984375,0.28125 1.664063,0.832031 0.691406,0.539062 1.054687,1.347656 0.363281,0.808594 0.363281,1.851562 0,1.101563 -0.503906,2.050782 -0.503906,0.9375 -1.300781,1.78125 -0.785156,0.84375 -1.746094,1.605468 -0.960937,0.761719 -1.875,1.511719 -0.914062,0.75 -1.664062,1.511719 -0.75,0.75 -1.125,1.570312 l 8.472656,0 0,1.710938 -11.015625,0 z"
             style="font-size:24px;font-family:'Courier New', Courier, monospace;text-anchor:start;fill:#f2f2f2;fill-opacity:0;stroke:#000000"
             id="path3640" />
        </g>
        <g
           transform="translate(20,0)"
           style="font-size:24px;font-family:'Courier New', Courier, monospace;text-anchor:start;fill:#f2f2f2;fill-opacity:0;stroke:#000000"
           id="svg_10">
          <path
             inkscape:connector-curvature="0"
             d="m 60.980469,26.261719 0,3.738281 -2.109375,0 0,-3.738281 -7.664063,0 0,-1.640625 7.441406,-10.429688 2.332032,0 0,10.40625 2.203125,0 0,1.664063 -2.203125,0 z m -2.109375,-9.785157 -5.859375,8.121094 5.859375,0 0,-8.121094 z"
             style="font-size:24px;font-family:'Courier New', Courier, monospace;text-anchor:start;fill:#f2f2f2;fill-opacity:0;stroke:#000000"
             id="path3643" />
        </g>
        <g
           transform="translate(88,0)"
           style="font-size:24px;font-family:'Courier New', Courier, monospace;text-anchor:start;fill:#f2f2f2;fill-opacity:0;stroke:#000000"
           id="svg_4">
          <path
             inkscape:connector-curvature="0"
             d="M 167.11719,30 165.5,25.523437 l -6.59766,0 L 157.29687,30 155,30 l 5.97656,-15.808594 2.54297,0 L 169.39062,30 l -2.27343,0 z m -3.90235,-11.179688 q -0.15234,-0.445312 -0.3164,-0.902343 -0.16407,-0.457032 -0.30469,-0.867188 -0.12891,-0.410156 -0.23438,-0.714844 -0.0937,-0.316406 -0.14062,-0.457031 -0.0469,0.140625 -0.14063,0.457031 -0.0937,0.316407 -0.23437,0.726563 -0.12891,0.410156 -0.28125,0.867187 -0.14063,0.457032 -0.29297,0.890625 l -1.76953,4.957032 5.42578,0 -1.71094,-4.957032 z"
             style="font-size:24px;font-family:'Courier New', Courier, monospace;text-anchor:start;fill:#f2f2f2;fill-opacity:0;stroke:#000000"
             id="path3661" />
        </g>
        <g
           transform="translate(80,0)"
           style="font-size:24px;font-family:'Courier New', Courier, monospace;text-anchor:start;fill:#f2f2f2;fill-opacity:0;stroke:#000000"
           id="svg_5">
          <path
             inkscape:connector-curvature="0"
             d="m 151.25391,30 0,-7.300781 -6.11719,0 0,7.300781 -2.23828,0 0,-15.808594 2.23828,0 0,6.632813 6.11719,0 0,-6.632813 2.23828,0 0,15.808594 -2.23828,0 z"
             style="font-size:24px;font-family:'Courier New', Courier, monospace;text-anchor:start;fill:#f2f2f2;fill-opacity:0;stroke:#000000"
             id="path3658" />
        </g>
        <g
           transform="translate(62,0)"
           style="font-size:24px;font-family:'Courier New', Courier, monospace;text-anchor:start;fill:#f2f2f2;fill-opacity:0;stroke:#000000"
           id="svg_6">
          <path
             inkscape:connector-curvature="0"
             d="m 127.21484,30 -4.28906,-6.738281 -2.78906,0 0,6.738281 -2.23828,0 0,-15.808594 5.64844,0 q 1.40625,0 2.44921,0.304688 1.05469,0.292969 1.7461,0.867187 0.70312,0.5625 1.04297,1.371094 0.35156,0.808594 0.35156,1.828125 0,0.726562 -0.23438,1.453125 -0.22265,0.714844 -0.71484,1.324219 -0.49219,0.597656 -1.25391,1.042968 -0.76171,0.445313 -1.82812,0.621094 L 129.79297,30 l -2.57813,0 z m -0.32812,-11.402344 q 0,-2.613281 -3.5625,-2.613281 l -3.1875,0 0,5.507812 3.28125,0 q 0.97266,0 1.62891,-0.234375 0.66796,-0.234375 1.0664,-0.621093 0.41016,-0.398438 0.58594,-0.925782 0.1875,-0.527343 0.1875,-1.113281 z"
             style="font-size:24px;font-family:'Courier New', Courier, monospace;text-anchor:start;fill:#f2f2f2;fill-opacity:0;stroke:#000000"
             id="path3655" />
        </g>
        <g
           transform="translate(52.497001,0.011997)"
           style="font-size:24px;font-family:'Courier New', Courier, monospace;text-anchor:start;fill:#f2f2f2;fill-opacity:0;stroke:#000000"
           id="svg_7">
          <path
             inkscape:connector-curvature="0"
             d="m 114.71484,24.257812 q 0,1.605469 -0.33984,2.742188 -0.33984,1.136719 -1.04297,1.863281 -0.6914,0.714844 -1.75781,1.042969 -1.05469,0.328125 -2.48438,0.328125 -1.35937,0 -2.3789,-0.304688 -1.01953,-0.316406 -1.69922,-0.996093 -0.66797,-0.691407 -1.00781,-1.78125 -0.33985,-1.101563 -0.33985,-2.683594 l 0,-10.277344 2.23828,0 0,9.972656 q 0,1.136719 0.14063,1.945313 0.15234,0.808594 0.50391,1.324219 0.36328,0.515625 0.97265,0.75 0.6211,0.234375 1.5586,0.234375 0.97265,0 1.61718,-0.234375 0.65625,-0.234375 1.05469,-0.75 0.39844,-0.527344 0.5625,-1.371094 0.17578,-0.84375 0.17578,-2.050781 l 0,-9.820313 2.22656,0 0,10.066406 z"
             style="font-size:24px;font-family:'Courier New', Courier, monospace;text-anchor:start;fill:#f2f2f2;fill-opacity:0;stroke:#000000"
             id="path3652" />
        </g>
        <g
           transform="translate(44,0)"
           style="font-size:24px;font-family:'Courier New', Courier, monospace;text-anchor:start;fill:#f2f2f2;fill-opacity:0;stroke:#000000"
           id="svg_8">
          <path
             inkscape:connector-curvature="0"
             d="m 101.19531,22.019531 q 0,2.027344 -0.41015,3.5625 -0.41016,1.535156 -1.183598,2.578125 -0.773437,1.03125 -1.898437,1.558594 -1.113281,0.515625 -2.519531,0.515625 -1.488282,0 -2.613282,-0.550781 -1.125,-0.550782 -1.875,-1.59375 -0.75,-1.054688 -1.125,-2.578125 -0.375,-1.535157 -0.375,-3.492188 0,-2.027344 0.398438,-3.539062 0.398437,-1.511719 1.160156,-2.519531 0.761719,-1.007813 1.875,-1.511719 1.125,-0.503906 2.578125,-0.503906 2.894531,0 4.441406,2.039062 1.546873,2.027344 1.546873,6.035156 z m -2.355466,0 q 0,-3.164062 -0.925782,-4.699219 -0.925781,-1.546874 -2.707031,-1.546874 -1.828125,0 -2.742187,1.546874 -0.914063,1.535157 -0.914063,4.699219 0,3.164063 0.925781,4.78125 0.925782,1.617188 2.71875,1.617188 1.910157,0 2.777344,-1.640625 0.867188,-1.640625 0.867188,-4.757813 z"
             style="font-size:24px;font-family:'Courier New', Courier, monospace;text-anchor:start;fill:#f2f2f2;fill-opacity:0;stroke:#000000"
             id="path3649" />
        </g>
        <g
           transform="translate(34,0)"
           style="font-size:24px;font-family:'Courier New', Courier, monospace;text-anchor:start;fill:#f2f2f2;fill-opacity:0;stroke:#000000"
           id="svg_9">
          <path
             inkscape:connector-curvature="0"
             d="m 84.253906,30 0,-7.300781 -6.117187,0 0,7.300781 -2.238282,0 0,-15.808594 2.238282,0 0,6.632813 6.117187,0 0,-6.632813 2.238281,0 0,15.808594 -2.238281,0 z"
             style="font-size:24px;font-family:'Courier New', Courier, monospace;text-anchor:start;fill:#f2f2f2;fill-opacity:0;stroke:#000000"
             id="path3646" />
        </g>
        <g
           transform="translate(98,0)"
           style="font-size:24px;font-family:'Courier New', Courier, monospace;text-anchor:start;fill:#f2f2f2;fill-opacity:0;stroke:#000000"
           id="svg_3">
          <path
             inkscape:connector-curvature="0"
             d="m 172.67969,22.019531 q 0,1.535156 0.23437,2.730469 0.23438,1.183594 0.72656,2.003906 0.49219,0.820313 1.25391,1.242188 0.77344,0.421875 1.85156,0.421875 0.73828,0 1.32422,-0.28125 0.59766,-0.28125 1.05469,-0.738282 0.46875,-0.457031 0.80859,-1.054687 0.33985,-0.597656 0.58594,-1.230469 l 1.86328,0.761719 q -0.32812,0.820312 -0.80859,1.605469 -0.48047,0.773437 -1.16016,1.394531 -0.67969,0.609375 -1.59375,0.984375 -0.90234,0.375 -2.09765,0.375 -1.65235,0 -2.85938,-0.585938 -1.19531,-0.597656 -1.99219,-1.675781 -0.78515,-1.078125 -1.17187,-2.589844 -0.375,-1.511718 -0.375,-3.363281 0,-1.945312 0.375,-3.445312 0.375,-1.511719 1.14844,-2.53125 0.77343,-1.03125 1.95703,-1.558594 1.18359,-0.539062 2.80078,-0.539062 1.18359,0 2.07422,0.328125 0.89062,0.316406 1.53515,0.867187 0.65625,0.539063 1.10157,1.253906 0.45703,0.703125 0.75,1.476563 l -1.96875,0.761718 q -0.17579,-0.539062 -0.48047,-1.054687 -0.30469,-0.515625 -0.73828,-0.914063 -0.42188,-0.398437 -0.9961,-0.644531 -0.5625,-0.246093 -1.26562,-0.246093 -1.04297,0 -1.79297,0.398437 -0.73828,0.398437 -1.21875,1.195312 -0.48047,0.785157 -0.70313,1.957032 -0.22265,1.160156 -0.22265,2.695312 z"
             style="font-size:24px;font-family:'Courier New', Courier, monospace;text-anchor:start;fill:#f2f2f2;fill-opacity:0;stroke:#000000"
             id="path3664" />
        </g>
        <g
           transform="translate(106,0)"
           style="font-size:24px;font-family:'Courier New', Courier, monospace;text-anchor:start;fill:#f2f2f2;fill-opacity:0;stroke:#000000"
           id="svg_2">
          <path
             inkscape:connector-curvature="0"
             d="m 195.75391,30 -5.70704,-7.476563 -1.91015,1.980469 0,5.496094 -2.23828,0 0,-15.808594 2.23828,0 0,7.886719 6.70312,-7.886719 2.63672,0 -5.90625,6.703125 6.8086,9.105469 -2.625,0 z"
             style="font-size:24px;font-family:'Courier New', Courier, monospace;text-anchor:start;fill:#f2f2f2;fill-opacity:0;stroke:#000000"
             id="path3667" />
        </g>
        <g
           transform="translate(142,0)"
           style="font-size:24px;font-family:'Courier New', Courier, monospace;text-anchor:start;fill:#f2f2f2;fill-opacity:0;stroke:#000000"
           id="svg_12">
          <path
             inkscape:connector-curvature="0"
             d="m 254.19531,22.019531 q 0,2.027344 -0.41015,3.5625 -0.41016,1.535156 -1.1836,2.578125 -0.77344,1.03125 -1.89844,1.558594 -1.11328,0.515625 -2.51953,0.515625 -1.48828,0 -2.61328,-0.550781 -1.125,-0.550782 -1.875,-1.59375 -0.75,-1.054688 -1.125,-2.578125 -0.375,-1.535157 -0.375,-3.492188 0,-2.027344 0.39844,-3.539062 0.39844,-1.511719 1.16016,-2.519531 0.76171,-1.007813 1.875,-1.511719 1.125,-0.503906 2.57812,-0.503906 2.89453,0 4.44141,2.039062 1.54687,2.027344 1.54687,6.035156 z m -2.35547,0 q 0,-3.164062 -0.92578,-4.699219 -0.92578,-1.546874 -2.70703,-1.546874 -1.82812,0 -2.74219,1.546874 -0.91406,1.535157 -0.91406,4.699219 0,3.164063 0.92578,4.78125 0.92578,1.617188 2.71875,1.617188 1.91016,0 2.77735,-1.640625 0.86718,-1.640625 0.86718,-4.757813 z"
             style="font-size:24px;font-family:'Courier New', Courier, monospace;text-anchor:start;fill:#f2f2f2;fill-opacity:0;stroke:#000000"
             id="path3679" />
        </g>
        <g
           transform="translate(136,0)"
           style="font-size:24px;font-family:'Courier New', Courier, monospace;text-anchor:start;fill:#f2f2f2;fill-opacity:0;stroke:#000000"
           id="svg_13">
          <path
             inkscape:connector-curvature="0"
             d="m 236.25391,30 0,-7.300781 -6.11719,0 0,7.300781 -2.23828,0 0,-15.808594 2.23828,0 0,6.632813 6.11719,0 0,-6.632813 2.23828,0 0,15.808594 -2.23828,0 z"
             style="font-size:24px;font-family:'Courier New', Courier, monospace;text-anchor:start;fill:#f2f2f2;fill-opacity:0;stroke:#000000"
             id="path3676" />
        </g>
        <g
           transform="translate(126,0)"
           style="font-size:24px;font-family:'Courier New', Courier, monospace;text-anchor:start;fill:#f2f2f2;fill-opacity:0;stroke:#000000"
           id="svg_14">
          <path
             inkscape:connector-curvature="0"
             d="m 220.30859,16.019531 0,13.980469 -2.22656,0 0,-13.980469 -5.19141,0 0,-1.828125 12.60938,0 0,1.828125 -5.19141,0 z"
             style="font-size:24px;font-family:'Courier New', Courier, monospace;text-anchor:start;fill:#f2f2f2;fill-opacity:0;stroke:#000000"
             id="path3673" />
        </g>
        <g
           transform="translate(118,0)"
           style="font-size:24px;font-family:'Courier New', Courier, monospace;text-anchor:start;fill:#f2f2f2;fill-opacity:0;stroke:#000000"
           id="svg_15">
          <path
             inkscape:connector-curvature="0"
             d="M 210.11719,30 208.5,25.523437 l -6.59766,0 L 200.29687,30 198,30 l 5.97656,-15.808594 2.54297,0 L 212.39062,30 l -2.27343,0 z m -3.90235,-11.179688 q -0.15234,-0.445312 -0.3164,-0.902343 -0.16407,-0.457032 -0.30469,-0.867188 -0.12891,-0.410156 -0.23438,-0.714844 -0.0937,-0.316406 -0.14062,-0.457031 -0.0469,0.140625 -0.14063,0.457031 -0.0937,0.316407 -0.23437,0.726563 -0.12891,0.410156 -0.28125,0.867187 -0.14063,0.457032 -0.29297,0.890625 l -1.76953,4.957032 5.42578,0 -1.71094,-4.957032 z"
             style="font-size:24px;font-family:'Courier New', Courier, monospace;text-anchor:start;fill:#f2f2f2;fill-opacity:0;stroke:#000000"
             id="path3670" />
        </g>
        <g
           transform="translate(150,0)"
           style="font-size:24px;font-family:'Courier New', Courier, monospace;text-anchor:start;fill:#f2f2f2;fill-opacity:0;stroke:#000000"
           id="svg_16">
          <path
             inkscape:connector-curvature="0"
             d="m 264.79687,30 -6.09375,-13.242188 q 0.0469,0.503907 0.0937,1.03125 0.0352,0.445313 0.0586,0.972657 0.0351,0.515625 0.0351,0.972656 l 0,10.265625 -1.99218,0 0,-15.808594 2.60156,0 6.1875,13.335938 q -0.0586,-0.46875 -0.10547,-1.007813 -0.0469,-0.457031 -0.082,-1.03125 -0.0234,-0.574219 -0.0234,-1.171875 l 0,-10.125 2.01563,0 0,15.808594 -2.69532,0 z"
             style="font-size:24px;font-family:'Courier New', Courier, monospace;text-anchor:start;fill:#f2f2f2;fill-opacity:0;stroke:#000000"
             id="path3682" />
        </g>
      </g>
    </g>
  </g>
</svg>
