<svg viewbox = "0 0 281.89 195.27999999999997" xmlns="http://www.w3.org/2000/svg">

 <g>
  <title>background</title>
  <rect fill="none" stroke="none" id="canvas_background" height="197.28" width="283.89" y="-1" x="-1"/>
 </g>
 <g>
  <title>Layer 1</title>
   <g id="svg_1">
   <g id="svg_2">
    <path id="svg_3" d="m3,179.262l0,-66.007l7.395,0.094l32.328,46.422l0,-46.422l9.48,0l0,65.913l-7.585,0l-32.043,-46.046l0,46.046l-9.575,0z" fill-opacity="0" stroke-width="2" stroke="#0A4266"/>
    <path id="svg_4" d="m97.248,123.859l-11.324,0l0,44.893l11.324,0l0,9.511l-32.224,0l0,-9.511l11.324,0l0,-44.893l-11.324,0l0,-9.416l32.224,0l0,9.416z" fill-opacity="0" stroke-width="2" stroke="#0A4266"/>
    <path id="svg_5" d="m159.128,136.984c-2.655,-10.641 -12.894,-14.502 -21.331,-14.502c-12.988,0 -23.037,10.076 -23.037,23.918c0,13.936 10.049,24.199 23.037,24.199c8.153,0 16.875,-3.767 20.856,-13.371l-24.554,0l0,-9.51l35.741,0c-0.475,5.555 -0.948,9.228 -1.802,11.393l0,-0.094c-4.551,12.618 -18.202,20.716 -30.242,20.716c-18.581,0 -32.612,-13.936 -32.612,-33.333c0,-19.492 14.315,-33.428 32.612,-33.428c12.704,0 28.062,6.497 31.569,24.012l-10.237,0z" fill-opacity="0" stroke-width="2" stroke="#0A4266"/>
    <path id="svg_6" d="m188.994,141.22l28.062,0l0,-27.777l9.67,0l0,65.819l-9.67,0l0,-28.625l-28.062,0l0,28.625l-9.575,0l0,-65.819l9.575,0l0,27.777z" fill-opacity="0" stroke-width="2" stroke="#0A4266"/>
    <path id="svg_7" d="m251.938,179.544l0,-55.592l-18.099,0l0,-9.604l45.677,0l0,9.604l-18.003,0l0,55.592l-9.575,0z" fill-opacity="0" stroke-width="2" stroke="#0A4266"/>
   </g>
   <g id="svg_8">
    <path id="svg_9" d="m114.895,106.295l0,-24.641l-8.751,0l0,-4.182l21.629,0l0,4.182l-8.709,0l0,24.641l-4.169,0z" fill-opacity="0" stroke-width="2" stroke="#0A4266"/>
    <path id="svg_10" d="m133.801,89.608l12.217,0l0,-12.095l4.211,0l0,28.659l-4.211,0l0,-12.464l-12.218,0l0,12.464l-4.169,0l0,-28.659l4.169,0l0,12.095l0.001,0z" fill-opacity="0" stroke-width="2" stroke="#0A4266"/>
    <path id="svg_11" d="m156.958,102.031l13.414,0l0,4.141l-17.625,0l0,-28.659l17.584,0l0,4.141l-13.373,0l0,8.077l13.084,0l0,4.183l-13.084,0l0,8.117z" fill-opacity="0" stroke-width="2" stroke="#0A4266"/>
   </g>
   <g id="svg_12">
    <path id="svg_13" d="m33.494,31.72l28.062,0l0,-27.777l9.67,0l0,65.819l-9.67,0l0,-28.625l-28.062,0l0,28.625l-9.575,0l0,-65.819l9.575,0l0,27.777z" fill-opacity="0" stroke-width="2" stroke="#0A4266"/>
    <path id="svg_14" d="m116.883,50.364l-23.796,0c-2.56,6.026 -5.878,13.937 -7.964,19.397l-10.333,0l26.64,-66.761l7.016,0l26.639,66.761l-10.238,0l-7.964,-19.397zm-20.194,-8.945l16.496,0l-8.153,-23.258l-8.343,23.258z" fill-opacity="0" stroke-width="2" stroke="#0A4266"/>
    <path id="svg_15" d="m142.338,13.359c5.783,-5.933 13.936,-9.793 22.942,-9.793c15.168,0 27.113,9.416 30.905,24.294l-9.479,0c-3.508,-9.887 -11.661,-14.878 -21.426,-14.878c-6.353,0 -12.135,2.731 -16.306,7.062c-4.172,4.332 -6.826,10.17 -6.826,16.949c0,6.591 2.654,12.43 6.826,16.761c4.171,4.332 9.953,7.063 16.306,7.063c10.049,0 18.581,-5.744 21.994,-15.725l9.386,0c-3.792,14.972 -15.927,25.141 -31.38,25.141c-9.007,0 -17.159,-3.767 -22.942,-9.793c-5.688,-6.026 -9.48,-14.313 -9.48,-23.446c-0.001,-9.322 3.792,-17.609 9.48,-23.635z" fill-opacity="0" stroke-width="2" stroke="#0A4266"/>
    <path id="svg_16" d="m212.97,3.943l0,65.819l-9.48,0l0,-65.819l9.48,0zm1.801,30.508l23.132,-30.509l12.04,0l-25.313,32.674l27.967,33.145l-12.515,0l-25.312,-30.508l0,-4.802l0.001,0z" fill-opacity="0" stroke-width="2" stroke="#0A4266"/>
   </g>
  </g>
 </g>
</svg>